<svg width="25" height="25" viewBox="0 0 25 25" fill="none" xmlns="http://www.w3.org/2000/svg">

<g mask="url(#mask0)">
<path fill-rule="evenodd" clip-rule="evenodd" d="M0.793381 12.4369C0.793381 5.80947 6.16596 0.43689 12.7934 0.43689C19.4208 0.43689 24.7934 5.80947 24.7934 12.4369C24.7934 19.0643 19.4208 24.4369 12.7934 24.4369C6.16596 24.4369 0.793381 19.0643 0.793381 12.4369Z" fill="url(#paint0_linear)"/>
<path fill-rule="evenodd" clip-rule="evenodd" d="M12.794 6.03687C11.0558 6.03687 10.8377 6.04447 10.155 6.07553C9.47369 6.10673 9.00861 6.2146 8.60168 6.37287C8.18074 6.53634 7.82367 6.75501 7.46793 7.11088C7.11193 7.46661 6.89326 7.82368 6.72926 8.24449C6.57059 8.65156 6.46259 9.11676 6.43192 9.79784C6.40139 10.4805 6.39339 10.6988 6.39339 12.4369C6.39339 14.1751 6.40112 14.3926 6.43205 15.0752C6.46339 15.7566 6.57126 16.2216 6.72939 16.6286C6.89299 17.0495 7.11166 17.4066 7.46753 17.7623C7.82314 18.1183 8.18021 18.3375 8.60088 18.501C9.00808 18.6593 9.47329 18.7671 10.1545 18.7983C10.8372 18.8294 11.0552 18.837 12.7932 18.837C14.5315 18.837 14.7489 18.8294 15.4316 18.7983C16.113 18.7671 16.5786 18.6593 16.9858 18.501C17.4066 18.3375 17.7631 18.1183 18.1187 17.7623C18.4747 17.4066 18.6934 17.0495 18.8574 16.6287C19.0147 16.2216 19.1227 15.7564 19.1547 15.0754C19.1854 14.3927 19.1934 14.1751 19.1934 12.4369C19.1934 10.6988 19.1854 10.4806 19.1547 9.79797C19.1227 9.11663 19.0147 8.65156 18.8574 8.24462C18.6934 7.82368 18.4747 7.46661 18.1187 7.11088C17.7627 6.75487 17.4067 6.5362 16.9854 6.37287C16.5774 6.2146 16.112 6.10673 15.4307 6.07553C14.748 6.04447 14.5307 6.03687 12.792 6.03687H12.794ZM12.2199 7.19022C12.3903 7.18996 12.5804 7.19022 12.794 7.19022C14.5028 7.19022 14.7053 7.19636 15.3802 7.22702C16.0042 7.25556 16.3428 7.35982 16.5684 7.44743C16.8671 7.56343 17.08 7.7021 17.3039 7.9261C17.5279 8.1501 17.6666 8.36344 17.7828 8.66211C17.8704 8.88744 17.9748 9.22611 18.0032 9.85012C18.0339 10.5248 18.0406 10.7275 18.0406 12.4355C18.0406 14.1435 18.0339 14.3462 18.0032 15.0208C17.9747 15.6448 17.8704 15.9835 17.7828 16.2088C17.6668 16.5075 17.5279 16.7202 17.3039 16.9441C17.0799 17.1681 16.8672 17.3067 16.5684 17.4227C16.3431 17.5107 16.0042 17.6147 15.3802 17.6433C14.7055 17.6739 14.5028 17.6806 12.794 17.6806C11.085 17.6806 10.8825 17.6739 10.2078 17.6433C9.58382 17.6145 9.24515 17.5102 9.01942 17.4226C8.72075 17.3066 8.50741 17.1679 8.28341 16.9439C8.05941 16.7199 7.92074 16.5071 7.80447 16.2083C7.71687 15.983 7.61247 15.6443 7.58407 15.0203C7.5534 14.3456 7.54727 14.143 7.54727 12.4339C7.54727 10.7248 7.5534 10.5232 7.58407 9.84852C7.6126 9.22451 7.71687 8.88584 7.80447 8.66024C7.92047 8.36157 8.05941 8.14823 8.28341 7.92423C8.50741 7.70023 8.72075 7.56156 9.01942 7.44529C9.24502 7.35729 9.58382 7.25329 10.2078 7.22462C10.7982 7.19796 11.027 7.18996 12.2199 7.18862V7.19022ZM16.2103 8.2529C15.7863 8.2529 15.4423 8.59651 15.4423 9.02064C15.4423 9.44465 15.7863 9.78865 16.2103 9.78865C16.6343 9.78865 16.9783 9.44465 16.9783 9.02064C16.9783 8.59664 16.6343 8.25264 16.2103 8.25264V8.2529ZM12.794 9.15024C10.9789 9.15024 9.50733 10.6219 9.50733 12.4369C9.50733 14.252 10.9789 15.723 12.794 15.723C14.6091 15.723 16.0802 14.252 16.0802 12.4369C16.0802 10.6219 14.609 9.15024 12.7939 9.15024H12.794ZM12.794 10.3036C13.9721 10.3036 14.9274 11.2587 14.9274 12.4369C14.9274 13.6151 13.9721 14.5703 12.794 14.5703C11.6157 14.5703 10.6606 13.6151 10.6606 12.4369C10.6606 11.2587 11.6157 10.3036 12.794 10.3036Z" fill="white"/>
</g>
<defs>
<mask id="mask0" mask-type="alpha" maskUnits="userSpaceOnUse" x="0" y="0" width="25" height="25">
  <path fill-rule="evenodd" clip-rule="evenodd" d="M0.793381 12.4369C0.793381 5.80947 6.16596 0.43689 12.7934 0.43689C19.4208 0.43689 24.7934 5.80947 24.7934 12.4369C24.7934 19.0643 19.4208 24.4369 12.7934 24.4369C6.16596 24.4369 0.793381 19.0643 0.793381 12.4369Z" fill="white"/>
</mask>
<linearGradient id="paint0_linear" x1="24.7934" y1="0.43689" x2="0.37236" y2="24.574" gradientUnits="userSpaceOnUse">
<stop stop-color="#DD13DD"/>
<stop offset="1" stop-color="#DDCD13"/>
</linearGradient>
</defs>
</svg>
