<svg width="30" height="30" viewBox="0 0 30 30" fill="none" xmlns="http://www.w3.org/2000/svg">
  <path class="circle" fill-rule="evenodd" clip-rule="evenodd" d="M0 15C0 6.71573 6.71573 0 15 0C23.2843 0 30 6.71573 30 15C30 23.2843 23.2843 30 15 30C6.71573 30 0 23.2843 0 15Z"/>
  <path class="icon" fill-rule="evenodd" clip-rule="evenodd" d="M22.9995 21H20.3331C20.3331 14.7505 15.2491 9.6665 8.99969 9.6665V7C16.7191 7 22.9995 13.2805 22.9995 21ZM8.99902 19.0004C8.99902 17.8959 9.89451 17.0004 10.999 17.0004C12.1035 17.0004 12.999 17.8959 12.999 19.0004C12.999 20.1049 12.1035 21.0004 10.999 21.0004C9.89451 21.0004 8.99902 20.1049 8.99902 19.0004ZM15.666 21.0001H18.3324C18.3324 15.8536 14.1455 11.6666 8.99902 11.6666V14.3336C12.675 14.3336 15.666 17.3241 15.666 21.0001Z"/>
</svg>
