<svg width="25" height="25" viewBox="0 0 25 25" fill="none" xmlns="http://www.w3.org/2000/svg">
  <path class="circle" fill-rule="evenodd" clip-rule="evenodd" d="M0.712646 12.9443C0.712646 6.31692 6.08523 0.944336 12.7126 0.944336C19.3401 0.944336 24.7126 6.31692 24.7126 12.9443C24.7126 19.5718 19.3401 24.9443 12.7126 24.9443C6.08523 24.9443 0.712646 19.5718 0.712646 12.9443Z"/>
  <path class="icon" fill-rule="evenodd" clip-rule="evenodd" d="M12.3532 10.6983L12.3784 11.1135L11.9587 11.0627C10.4311 10.8678 9.09647 10.2068 7.96332 9.09669L7.40933 8.54588L7.26663 8.95263C6.96446 9.85935 7.15752 10.8169 7.78705 11.4609C8.1228 11.8169 8.04725 11.8677 7.46808 11.6558C7.26663 11.5881 7.09037 11.5372 7.07358 11.5626C7.01482 11.6219 7.21627 12.3931 7.37575 12.6982C7.59399 13.1219 8.03886 13.5371 8.5257 13.7828L8.93699 13.9777L8.45015 13.9862C7.9801 13.9862 7.96332 13.9947 8.01368 14.1726C8.18155 14.7234 8.84466 15.3081 9.58331 15.5624L10.1037 15.7403L9.65046 16.0115C8.97896 16.4013 8.18995 16.6216 7.40093 16.6386C7.02322 16.647 6.71265 16.6809 6.71265 16.7064C6.71265 16.7911 7.73668 17.2656 8.33264 17.4521C10.1205 18.0029 12.2441 17.7656 13.8389 16.825C14.9721 16.1556 16.1053 14.8251 16.6341 13.5371C16.9194 12.8507 17.2048 11.5965 17.2048 10.9949C17.2048 10.6051 17.23 10.5542 17.7001 10.0882C17.9771 9.81698 18.2373 9.52039 18.2876 9.43565C18.3716 9.27465 18.3632 9.27465 17.9351 9.4187C17.2216 9.67292 17.1209 9.63903 17.4734 9.2577C17.7336 8.98653 18.0442 8.49504 18.0442 8.35098C18.0442 8.32556 17.9183 8.36793 17.7756 8.44419C17.6245 8.52893 17.2888 8.65604 17.037 8.73231L16.5837 8.87637L16.1724 8.59672C15.9458 8.44419 15.6268 8.27471 15.4589 8.22387C15.0309 8.10523 14.3761 8.12218 13.99 8.25776C12.9408 8.63909 12.2777 9.62208 12.3532 10.6983Z"/>
</svg>
