<svg width="25" height="25" viewBox="0 0 25 25" fill="none" xmlns="http://www.w3.org/2000/svg">
  <path class="circle" fill-rule="evenodd" clip-rule="evenodd" d="M0.0358887 12.9443C0.0358887 6.31692 5.40847 0.944336 12.0359 0.944336C18.6633 0.944336 24.0359 6.31692 24.0359 12.9443C24.0359 19.5718 18.6633 24.9443 12.0359 24.9443C5.40847 24.9443 0.0358887 19.5718 0.0358887 12.9443Z"/>
  <path class="icon" fill-rule="evenodd" clip-rule="evenodd" d="M12.6637 16.8822C12.6637 16.8822 12.8947 16.857 13.0131 16.7322C13.1214 16.6179 13.1176 16.4022 13.1176 16.4022C13.1176 16.4022 13.1032 15.395 13.5796 15.2463C14.0492 15.1001 14.652 16.2203 15.2919 16.6511C15.7752 16.9768 16.142 16.9055 16.142 16.9055L17.8518 16.8822C17.8518 16.8822 18.7458 16.8281 18.3219 16.138C18.2869 16.0815 18.0747 15.6273 17.0511 14.6945C15.9786 13.718 16.1226 13.8759 17.4135 12.1866C18.1999 11.1579 18.5141 10.5298 18.4159 10.2613C18.3226 10.0044 17.7441 10.0726 17.7441 10.0726L15.8196 10.0843C15.8196 10.0843 15.6769 10.0652 15.5711 10.1273C15.4678 10.1881 15.4008 10.3301 15.4008 10.3301C15.4008 10.3301 15.0965 11.1259 14.6902 11.8031C13.8332 13.2313 13.4907 13.3069 13.3505 13.2184C13.0243 13.0113 13.1057 12.3875 13.1057 11.9445C13.1057 10.5599 13.3198 9.98289 12.6894 9.83356C12.4803 9.78378 12.3263 9.75121 11.791 9.74568C11.1042 9.73892 10.5233 9.74814 10.194 9.90607C9.97484 10.0112 9.80581 10.2459 9.9091 10.2594C10.0362 10.276 10.3242 10.3356 10.4769 10.5396C10.6741 10.8033 10.6672 11.3945 10.6672 11.3945C10.6672 11.3945 10.7806 13.0242 10.4024 13.2264C10.1432 13.3652 9.78765 13.0819 9.02325 11.7859C8.63197 11.1222 8.33647 10.3885 8.33647 10.3885C8.33647 10.3885 8.2795 10.2514 8.17745 10.1777C8.05412 10.0886 7.88196 10.0609 7.88196 10.0609L6.05327 10.0726C6.05327 10.0726 5.77844 10.08 5.67764 10.1974C5.58812 10.3012 5.67076 10.5169 5.67076 10.5169C5.67076 10.5169 7.10253 13.8052 8.72399 15.4626C10.2109 16.9817 11.8987 16.8822 11.8987 16.8822H12.6637Z"/>
</svg>
