<svg width="25" height="25" viewBox="0 0 25 25" fill="none" xmlns="http://www.w3.org/2000/svg">
<path fill-rule="evenodd" clip-rule="evenodd" d="M12.0359 24.9443C18.6633 24.9443 24.0359 19.5718 24.0359 12.9443C24.0359 6.31692 18.6633 0.944336 12.0359 0.944336C5.40847 0.944336 0.0358887 6.31692 0.0358887 12.9443C0.0358887 19.5718 5.40847 24.9443 12.0359 24.9443Z" fill="#25D366"/>
<path fill-rule="evenodd" clip-rule="evenodd" d="M12.4314 19.621H12.4284C11.2342 19.6206 10.0607 19.3209 9.01851 18.7525L5.23584 19.7447L6.24815 16.0471C5.62371 14.965 5.29513 13.7375 5.29566 12.4798C5.29723 8.54557 8.49825 5.34473 12.4313 5.34473C14.3402 5.34555 16.1317 6.08866 17.4789 7.43743C18.8261 8.78614 19.5677 10.5789 19.5669 12.4855C19.5653 16.4189 16.3656 19.6194 12.4314 19.621ZM9.19559 17.4606L9.41216 17.5892C10.3227 18.1295 11.3666 18.4154 12.4308 18.4159H12.4332C15.7021 18.4159 18.3626 15.7553 18.3639 12.485C18.3645 10.9003 17.7482 9.41023 16.6285 8.28918C15.5087 7.16813 14.0196 6.55045 12.4355 6.5499C9.16412 6.5499 6.50354 9.21024 6.50225 12.4802C6.50179 13.6009 6.81534 14.6922 7.40903 15.6365L7.55004 15.8609L6.9509 18.0495L9.19559 17.4606ZM16.026 14.1824C15.9814 14.108 15.8626 14.0634 15.6843 13.9741C15.506 13.8849 14.6294 13.4536 14.466 13.394C14.3026 13.3345 14.1837 13.3048 14.0648 13.4833C13.946 13.6617 13.6043 14.0634 13.5003 14.1824C13.3963 14.3013 13.2923 14.3163 13.114 14.227C12.9358 14.1377 12.3613 13.9495 11.6802 13.342C11.1502 12.8692 10.7924 12.2854 10.6884 12.1069C10.5844 11.9284 10.6773 11.832 10.7665 11.7431C10.8468 11.6631 10.9449 11.5348 11.034 11.4307C11.1231 11.3266 11.1528 11.2522 11.2123 11.1333C11.2717 11.0142 11.242 10.9101 11.1974 10.8209C11.1528 10.7316 10.7963 9.85404 10.6477 9.49704C10.503 9.14938 10.356 9.19648 10.2466 9.19098C10.1427 9.18577 10.0237 9.18467 9.90483 9.18467C9.78598 9.18467 9.59281 9.22929 9.42939 9.40779C9.26596 9.58629 8.80537 10.0176 8.80537 10.8952C8.80537 11.7728 9.44424 12.6206 9.53339 12.7396C9.62253 12.8586 10.7906 14.6594 12.5792 15.4317C13.0045 15.6154 13.3366 15.7251 13.5956 15.8073C14.0227 15.943 14.4114 15.9239 14.7186 15.878C15.0611 15.8268 15.7734 15.4467 15.9221 15.0302C16.0706 14.6137 16.0706 14.2567 16.026 14.1824Z" fill="#FDFDFD"/>
</svg>
