<svg width="29" height="28" viewBox="0 0 29 28" fill="none" xmlns="http://www.w3.org/2000/svg">
<g clip-path="url(#clip0)">
<rect x="0.5" width="28" height="28" rx="1" fill="#E9A21A"/>
<path d="M0.5 1C0.5 0.447715 0.947715 0 1.5 0H14.5V13.8769C14.5 13.9587 14.51 14.0401 14.5299 14.1194L18 28H1.5C0.947715 28 0.5 27.5523 0.5 27V1Z" fill="#313E77"/>
<path d="M27.5 4.2H24.75V3.87H24.53V2.99H24.21V3.98H23.89V3.76H17.94V3.54H17.29L15.97 3.87L15.86 3.21L16.64 2.77V1.65L16.53 1.43L16.42 1.21V0.88C16.12 0.44 15.04 0 14.46 0C13.85 0 13.31 0.07 12.71 0.99C12.11 1.91 12.49 2.99 12.49 2.99V3.54C12.21 3.3 11.6 3.21 11.6 3.21C10 3.21 9.29 5.7 9.29 6.53C9.29 7.36 9.4 7.98 9.4 7.98H8.51C8.23 7.98 8.19 8.57 8.19 9.19C8.17 9.81 8 10.77 8.08 10.97C8.14 11.15 8.86 11.19 8.86 11.19C8.86 11.19 8.67 11.28 8.43 11.63C8.17 12 8.43 12.97 8.43 12.97V14.53L8.28 14.62L8.06 14.84V15.17L8.17 15.39L8.06 15.72V16.16L8.28 16.49C8.28 16.49 8.19 17.06 8.06 17.7C7.93 18.36 7.95 20.03 7.95 20.03C7.65 20.05 7.63 20.47 7.63 20.47C7.63 20.47 7.57 20.56 7.2 21.13C6.81 21.7 6.7 22.27 6.66 22.69C6.6 23.11 6.31 23.42 6.01 23.9C5.69 24.38 6.23 25 6.23 25C5.65 26.39 5.52 27.38 5.5 27.98H7.6C7.54 27.78 7.43 27.34 7.43 26.88C7.43 26.26 7.97 25.21 7.97 25.21L8.4 25.1L8.51 24.66C8.6 24.29 8.99 23.49 9.29 22.88C9.57 22.26 9.29 21.89 9.29 21.89L9.5 21.34L9.82 21.01L10.25 20.46L10.57 20.02L10.68 19.47C10.68 19.47 10.92 18.74 11 18.26C11.09 17.75 11.78 17.05 11.78 17.05L11.89 16.5L12.43 17.38L13.08 17.49L14.51 19.82H15.29L15.51 20.04V21.03L15.19 21.47L15.41 23.14L15.52 24.35L15.74 24.57L15.96 26.24L15.64 26.46L15.52 28H19.8V27.91L19.69 27.58L19.26 27.36L18.72 27.14L17.62 25.93L17.73 24.37L17.95 23.93V23.16L17.73 22.72L17.95 21.62L18.06 19.51L17.84 19.4V18.74H17.62C17.62 18.74 17.19 17.49 16.97 16.85C16.73 16.21 15.93 15.07 15.54 14.74C15.15 14.41 15.13 13.84 15.11 13.64C15.09 13.42 15.33 13.2 15.33 13.2C15.33 13.2 15.44 13.27 15.65 13.31C15.87 13.35 15.87 13.2 15.87 13.2L16.09 12.76L16.31 12.43L16.42 11.44V9.99C16.36 9.44 15.88 9.22 15.88 9.22L15.99 8.78L16.4 9L16.94 9.22L17.59 9.55L18.37 9.77L18.91 9.66L19.45 9.33L19.99 8.56L20.21 7.57L20.53 7.46L20.64 7.24L20.53 6.8V5.81L20.96 5.48L21.07 5.26L21.39 5.04H23.92V4.71H27.45V4.2H27.5ZM18.48 6.75L18.16 6.09L19.05 6.2L18.48 6.75ZM19.26 5.87H18.61L18.83 5.43H19.26V5.87Z" fill="white"/>
</g>
<defs>
<clipPath id="clip0">
<rect width="28" height="28" fill="white" transform="translate(0.5)"/>
</clipPath>
</defs>
</svg>
