<svg width="29" height="28" viewBox="0 0 29 28" fill="none" xmlns="http://www.w3.org/2000/svg">
<g clip-path="url(#clip0)">
<rect x="0.5" width="28" height="28" rx="1" fill="#2E1D0F"/>
<path d="M20.48 20.07L19.7 17.7C19.99 17.29 20.23 16.84 20.42 16.37L24.5 13.93L20.37 11.5C20.2 11.09 19.99 10.71 19.74 10.35L20.42 7.66L17.82 8.51C17.51 8.32 17.18 8.15 16.84 8.01L14.43 4L12.07 8.01C11.68 8.16 11.32 8.35 10.97 8.57L8.02 7.72L8.9 10.71C8.73 10.99 8.58 11.29 8.46 11.6L4.5 13.93L8.41 16.26C8.54 16.61 8.71 16.95 8.9 17.27L8.08 20.11L10.81 19.31C11.2 19.58 11.62 19.8 12.07 19.98L14.43 24L16.84 19.97C17.22 19.82 17.57 19.63 17.91 19.42L20.48 20.07Z" fill="#FF9C00"/>
<path d="M14.5 19C17.2614 19 19.5 16.7614 19.5 14C19.5 11.2386 17.2614 9 14.5 9C11.7386 9 9.5 11.2386 9.5 14C9.5 16.7614 11.7386 19 14.5 19Z" fill="#2E1D0F"/>
<path d="M11.55 17.31C11.5 17.24 11.42 16.97 11.42 16.97L11.27 16.66C11.27 16.66 11.14 16.44 11.42 16.48C11.7 16.52 12.72 16.92 13.28 16.94C13.84 16.95 14.13 16.66 14.24 16.63C14.34 16.6 14.95 16.36 15.12 16.34C15.3 16.31 16.39 15.64 16.55 14.04C16.71 12.44 15.27 11.49 14.44 11.48C14.44 11.48 13.92 11.47 13.81 11.54C13.69 11.61 12.93 11.97 12.59 12.01C12.59 12.01 12.31 12.28 12.35 12.6C12.39 12.92 12.39 14.04 13.57 14.04C13.57 14.04 13.85 13.89 13.82 12.79C13.82 12.79 15.29 12.67 15.32 14.04C15.35 15.41 14.01 15.61 13.17 15.57C12.33 15.53 10.56 14.37 10.69 12.52L10.79 11.86L11.08 11.52C11.08 11.52 11.76 10.15 13.3 9.74001C13.3 9.74001 13.43 9.52001 13.59 9.52001C13.75 9.52001 13.88 9.70001 14.12 9.73001C14.36 9.76001 14.44 9.51001 14.66 9.52001C14.88 9.53001 14.9 9.70001 15.13 9.74001C15.37 9.78001 16.51 9.92001 17.44 11.18C17.44 11.18 17.48 11.5 17.62 11.56C17.75 11.62 18.06 11.75 18.11 11.85C18.15 11.95 18.46 13.06 18.43 13.53C18.4 14 18.27 16.2 16.81 16.87L16.78 17.27C16.78 17.27 15.69 18.24 14.03 18.12C12.39 18.02 11.94 17.85 11.55 17.31Z" fill="#39CCFF"/>
</g>
<defs>
<clipPath id="clip0">
<rect width="28" height="28" fill="white" transform="translate(0.5)"/>
</clipPath>
</defs>
</svg>
