<svg width="29" height="28" viewBox="0 0 29 28" fill="none" xmlns="http://www.w3.org/2000/svg">
<g clip-path="url(#clip0)">
<rect x="0.5" width="28" height="28" rx="1" fill="#0C2B4C"/>
<path d="M21.5 14.3C21.5 10.63 18.88 7.59 15.5 7.11V5C20 5.49 23.5 9.47 23.5 14.3C23.5 16.82 22.24 19 22.24 19H19.84C20.88 17.73 21.5 16.09 21.5 14.3ZM7.5 22C5.65 20.21 4.5 17.73 4.5 15C4.5 12.27 5.65 9.79 7.5 8V11.81C7.04 12.78 6.78 13.86 6.78 15C6.78 16.14 7.04 17.22 7.5 18.19V22ZM7.5 24L9.16 21.98V6.02L7.5 4H13.54V20.74H23.5L21.27 24H7.5Z" fill="#F3AE25"/>
</g>
<defs>
<clipPath id="clip0">
<rect width="28" height="28" fill="white" transform="translate(0.5)"/>
</clipPath>
</defs>
</svg>
