<svg width="28" height="28" viewBox="0 0 21 23" xmlns="http://www.w3.org/2000/svg">
<g clip-path="url(#clip0)">
<path fill-rule="evenodd" clip-rule="evenodd" d="M2.18213 22.3093C3.2867 22.3093 4.18213 21.4139 4.18213 20.3093C4.18213 19.2048 3.2867 18.3093 2.18213 18.3093C1.07756 18.3093 0.182129 19.2048 0.182129 20.3093C0.182129 21.4139 1.07756 22.3093 2.18213 22.3093Z" />
<path fill-rule="evenodd" clip-rule="evenodd" d="M10.1821 22.3093C11.2867 22.3093 12.1821 21.4139 12.1821 20.3093C12.1821 19.2048 11.2867 18.3093 10.1821 18.3093C9.07756 18.3093 8.18213 19.2048 8.18213 20.3093C8.18213 21.4139 9.07756 22.3093 10.1821 22.3093Z" />
<path fill-rule="evenodd" clip-rule="evenodd" d="M18.1821 22.3093C19.2867 22.3093 20.1821 21.4139 20.1821 20.3093C20.1821 19.2048 19.2867 18.3093 18.1821 18.3093C17.0776 18.3093 16.1821 19.2048 16.1821 20.3093C16.1821 21.4139 17.0776 22.3093 18.1821 22.3093Z" />
</g>
<defs>
<clipPath id="clip0">
<rect width="20" height="22" fill="white" transform="translate(0.182129 0.309326)"/>
</clipPath>
</defs>
</svg>
