<svg width="29" height="28" viewBox="0 0 29 28" fill="none" xmlns="http://www.w3.org/2000/svg">
<rect x="0.5" width="28" height="28" rx="1" fill="#F15A29"/>
<path fill-rule="evenodd" clip-rule="evenodd" d="M19.2933 17.6361C19.278 17.6515 19.2636 17.6674 19.248 17.6826C17.164 19.7165 13.785 19.7165 11.7012 17.6826C9.61717 15.6487 9.61717 12.3514 11.7012 10.3175C13.785 8.28355 17.164 8.28355 19.248 10.3175L19.9663 9.61622C17.4856 7.19525 13.4634 7.19525 10.9827 9.61622C8.50202 12.0375 8.50202 15.9626 10.9827 18.3838C13.4634 20.8048 17.4856 20.8048 19.9663 18.3838C19.9821 18.3684 19.9963 18.3524 20.0118 18.3373L19.2933 17.6361Z" fill="white"/>
<path fill-rule="evenodd" clip-rule="evenodd" d="M21.8816 20.1618C21.8661 20.177 21.8519 20.1932 21.8363 20.2084C18.3233 23.6369 12.6273 23.6369 9.11445 20.2084C5.60136 16.7798 5.60136 11.2212 9.11445 7.79272C12.6273 4.3642 18.3233 4.3642 21.8363 7.79272L22.5431 7.10299C18.6395 3.29341 12.311 3.29341 8.40744 7.10299C4.50416 10.9123 4.50416 17.0888 8.40744 20.8981C12.311 24.7077 18.6395 24.7077 22.5431 20.8981C22.5586 20.8829 22.5728 20.867 22.5883 20.8516L21.8816 20.1618Z" fill="white"/>
<path d="M15.503 10.0112L16.7692 12.2576L19.2968 12.7676L17.5517 14.6659L17.8477 17.2274L15.503 16.1543L13.1584 17.2274L13.4544 14.6659L11.7093 12.7676L14.2369 12.2576L15.503 10.0112Z" fill="white"/>
</svg>
