<svg width="29" height="28" viewBox="0 0 29 28" fill="none" xmlns="http://www.w3.org/2000/svg">
<g clip-path="url(#clip0)">
<rect x="0.5" width="28" height="28" rx="1" fill="#43484D"/>
<path d="M21.11 7.12012L19.18 9.20012C19.18 9.20012 21.1 11.2801 21.1 13.5301C21.1 15.4401 20.23 16.9901 20.23 16.9901L16.21 13.3501L14.46 9.71012V15.4301L18.24 19.1401C18.24 19.1401 16.79 20.5601 14.11 20.6301C11.44 20.5601 9.98 19.1401 9.98 19.1401L13.76 15.4301V9.72012L12.01 13.3601L8 16.9901C8 16.9901 7.13 15.4301 7.13 13.5301C7.13 11.2801 9.05 9.20012 9.05 9.20012L7.12 7.12012C4.85 9.54012 4.5 12.1401 4.5 13.5301C4.5 14.9201 4.85 17.5101 6.95 19.9401C9.05 22.3701 11.67 23.2301 14.12 23.2301C16.57 23.2301 19.19 22.3601 21.29 19.9401C23.39 17.5201 23.74 14.9201 23.74 13.5301C23.74 12.1401 23.38 9.54012 21.11 7.12012Z" fill="#F3F3F3"/>
<path d="M19.7103 5.76043C16.9103 4.01043 14.7303 3.98043 14.1203 4.01043C13.5103 3.98043 11.3203 4.01043 8.53027 5.76043L10.2803 7.84043C10.2803 7.84043 11.9403 6.85043 14.1303 6.80043C16.3203 6.85043 17.9803 7.84043 17.9803 7.84043L19.7103 5.76043Z" fill="#F99E19"/>
</g>
<defs>
<clipPath id="clip0">
<rect width="28" height="28" fill="white" transform="translate(0.5)"/>
</clipPath>
</defs>
</svg>
