<svg width="29" height="28" viewBox="0 0 29 28" fill="none" xmlns="http://www.w3.org/2000/svg">
<g clip-path="url(#clip0)">
<rect x="0.5" width="28" height="28" rx="1" fill="#0F1225"/>
<path d="M22.8 6.48C23.27 7.67 23.5 8.89 23.5 10.13C23.5 11.22 23.32 12.22 22.96 13.12C22.36 14.65 21.41 15.92 20.1 16.94C18.75 17.99 17.23 18.6 15.55 18.77V20.96C15.55 21.05 15.48 21.38 15.35 21.98C15.08 23.16 14.83 24.49 14.61 25.99C13.86 22.85 13.45 21.18 13.37 20.98V18.75C11.73 18.59 10.25 18 8.93 16.97C6.64 15.19 5.5 12.91 5.5 10.14C5.5 8.98 5.7 7.85 6.11 6.74C6.49 5.69 7.06 4.75 7.82 3.92C8.65 2.99 9.58 2.36 10.61 2C9.51 2.61 8.61 3.38 7.88 4.31C6.91 5.59 6.42 7.04 6.42 8.67C6.42 9.26 6.48 9.85 6.6 10.43C6.85 11.65 7.48 12.78 8.47 13.83C9.49 14.92 10.62 15.61 11.87 15.89C12.52 16.1 13.01 16.22 13.36 16.23V14.02C13.36 13.79 13.35 13.54 13.34 13.26C13.24 12.79 12.95 12.52 12.48 12.45C12.45 12.42 12.41 12.41 12.37 12.41H16.45C16.55 12.41 16.6 12.42 16.58 12.45C16.02 12.53 15.7 12.8 15.61 13.26C15.56 13.49 15.54 13.75 15.54 14.05V16.24C16.31 16.08 16.83 15.97 17.12 15.9C18.34 15.6 19.45 14.94 20.45 13.92C21.86 12.48 22.57 10.73 22.57 8.67C22.57 7.27 22.19 5.98 21.44 4.82C20.7 3.65 19.67 2.71 18.36 2C20.42 2.74 21.9 4.23 22.8 6.48Z" fill="white"/>
</g>
<defs>
<clipPath id="clip0">
<rect width="28" height="28" fill="white" transform="translate(0.5)"/>
</clipPath>
</defs>
</svg>
