<svg width="29" height="28" viewBox="0 0 29 28" fill="none" xmlns="http://www.w3.org/2000/svg">
<g clip-path="url(#clip0)">
<rect x="0.5" width="28" height="28" rx="1" fill="black"/>
<path d="M12.95 22.83C12.32 22.73 11.4 22.41 11 22.16C10.49 21.85 10.05 21.29 9.85996 20.72C9.70996 20.25 9.70996 20.03 9.70996 13.71C9.70996 9.20001 9.72996 7.07001 9.78996 6.79001C10.07 5.52001 11.09 4.64001 12.65 4.34001C13.94 4.08001 15.68 4.12001 16.77 4.42001C17.46 4.61001 18.01 4.92001 18.44 5.35001C19.14 6.07001 19.3 6.64001 19.3 8.36001V9.54001H17.27H15.24V8.64001C15.24 8.14001 15.21 7.69001 15.18 7.64001C15.1 7.52001 14.56 7.41001 14.26 7.46001C13.81 7.52001 13.78 7.64001 13.78 9.30001C13.78 10.13 13.8 10.8 13.82 10.8C13.84 10.8 13.96 10.73 14.07 10.65C14.34 10.46 15 10.35 15.97 10.35C17.28 10.35 18.07 10.59 18.73 11.17C19.34 11.71 19.31 11.47 19.31 16.02C19.31 19.88 19.3 20.11 19.16 20.55C18.81 21.61 17.92 22.32 16.43 22.72C15.88 22.87 13.6 22.94 12.95 22.83ZM14.03 20.94C14.15 20.9 14.16 20.73 14.16 19.43C14.16 17.76 14.17 17.75 14.79 17.58C14.97 17.54 15.17 17.48 15.22 17.47C15.28 17.46 15.31 17.26 15.31 16.83C15.31 16.11 15.36 15.91 15.52 15.85C15.59 15.83 16.01 15.74 16.46 15.66C16.9 15.57 17.29 15.47 17.32 15.42C17.4 15.3 17.39 14.65 17.3 14.3C17.17 13.74 16.86 13.69 15.82 14.09C15.44 14.23 14.98 14.37 14.79 14.39C14.51 14.43 14.44 14.4 14.27 14.23C14.11 14.07 14 14.04 13.66 14.04C13.18 14.04 12.85 14.14 12.85 14.29C12.85 14.35 12.8 14.41 12.76 14.43C12.68 14.45 12.68 14.5 12.76 14.62C12.88 14.82 12.9 20.27 12.78 20.58C12.71 20.74 12.73 20.79 12.87 20.92C13.02 21.05 13.12 21.06 13.48 21.02C13.72 21.01 13.97 20.97 14.03 20.94Z" fill="#FDFDFD"/>
<path d="M14.3 17.32C14.27 17.29 14.25 17.09 14.25 16.88C14.25 16.52 14.27 16.49 14.47 16.4C14.6 16.35 14.8 16.33 14.93 16.36C15.21 16.42 15.24 16.31 15 16.15C14.87 16.06 14.86 16.03 14.95 16.03C15.18 16.03 15.25 16.22 15.23 16.78L15.21 17.32L14.79 17.34C14.54 17.37 14.33 17.35 14.3 17.32Z" fill="#FDFDFD"/>
</g>
<defs>
<clipPath id="clip0">
<rect width="27.83" height="27.83" fill="white" transform="translate(0.5)"/>
</clipPath>
</defs>
</svg>
