<svg width="29" height="28" viewBox="0 0 29 28" fill="none" xmlns="http://www.w3.org/2000/svg">
<g clip-path="url(#clip0)">
<rect x="0.5" width="28" height="28" rx="1" fill="#343A40"/>
<path fill-rule="evenodd" clip-rule="evenodd" d="M26.18 8.33C26.22 8.4 26.18 8.5 26.11 8.5L22.99 10.57C22.95 10.6 22.88 10.57 22.85 10.54L22.42 10.04H14.79C14.79 10.04 14.75 10.04 14.72 10.01C14.68 9.94 14.68 9.88 14.72 9.84L16.44 8.34L16.58 8.31H26.11C26.14 8.3 26.18 8.33 26.18 8.33ZM22.31 17.5C22.56 17.5 22.78 17.47 23.03 17.4C23.14 17.4 23.17 17.43 23.17 17.43C23.13 17.73 22.49 18.66 19.66 18.66C17.8 18.66 15.47 16.93 14.86 15.16C14.61 14.63 14.5 14.03 14.5 13.43C14.5 12.63 14.61 11.83 14.89 11.06C14.89 11.03 14.96 10.99 15 10.99H18.22C18.26 10.99 18.29 10.99 18.33 11.02C18.37 11.05 18.37 11.09 18.37 11.12C18.26 11.75 18.19 12.45 18.19 13.09C18.23 13.36 18.23 13.62 18.26 13.86C18.4 15.9 20.2 17.43 22.31 17.5ZM14.07 8.3C14.11 8.3 14.14 8.33 14.18 8.37C14.18 8.44 14.18 8.47 14.14 8.5L11.88 10.8C11.88 10.83 11.84 10.83 11.81 10.83C11.78 10.83 11.77 10.83 11.74 10.8L10.88 10.07H4.43002C4.36002 10.03 4.33002 10 4.33002 9.9V9.63C4.29002 9.23 4.44002 8.8 4.76002 8.53C5.04002 8.37 5.40002 8.27 5.72002 8.3H14.07ZM8.95002 11.1C8.95002 11.1 13.5 16.43 13.86 16.97C14 17.17 14.07 17.37 14.07 17.6C14.07 18.13 13.68 18.77 13.07 18.77H2.75002C2.71002 18.77 2.71002 18.77 2.68002 18.74C2.64002 18.67 2.64002 18.61 2.68002 18.57L5.47002 16.17C5.51002 16.14 5.54002 16.14 5.58002 16.14C5.62002 16.14 5.62002 16.14 5.65002 16.17C5.76002 16.3 5.86002 16.4 6.01002 16.5C6.33002 16.73 6.76002 16.83 7.19002 16.83H10.13L10.17 16.8V16.77C10.03 16.64 5.05002 11.24 5.05002 11.24C5.01002 11.21 5.01002 11.21 5.01002 11.17C5.01002 11.14 5.05002 11.07 5.12002 11.07H8.85002L8.95002 11.1Z" fill="#CCE1FF"/>
<path fill-rule="evenodd" clip-rule="evenodd" d="M15.57 8.77V9.07L15.53 5.6C15.53 5.57 15.56 5.53 15.6 5.5L19.32 4.1H19.39L23.29 4.8C23.36 4.83 23.39 4.87 23.39 4.93C23.39 4.96 23.36 5.03 23.32 5.03C22.87 5.2 22.45 5.4 22 5.63C21.3 6 19.98 6.8 19.7 7.26C19.6 7.43 19.56 7.63 19.56 7.83V8H16.63L16.39 8.07L15.57 8.77ZM18.63 10.9C18.49 10.77 18.35 10.77 18.28 10.77H15.57V10.31H19.57V16.04C19.05 15.47 18.74 14.74 18.67 13.94V13.9C18.64 13.8 18.64 13.7 18.64 13.57C18.64 13.47 18.61 13.34 18.61 13.2C18.61 12.63 18.68 12 18.78 11.3V11.27V11.24C18.77 11.2 18.77 11.03 18.63 10.9ZM16.65 17.97C17.59 18.7 18.63 19.1 19.54 19.1V19.7C19.54 19.7 19.54 21.23 15.85 23.63C15.82 23.66 15.57 23.7 15.57 23.63V23.6V16.93C15.88 17.3 16.23 17.67 16.65 17.97ZM12.25 10.89L13.5 9.6V16C12.32 14.59 9.99 11.86 9.5 11.28V10.34H10.82L11.55 10.95C11.62 11.05 11.72 11.08 11.86 11.08C12.07 11.08 12.18 10.98 12.25 10.89ZM13.18 19.07C13.29 19.07 13.43 19.07 13.5 19V23.92C13.5 23.96 13.5 23.96 13.5 23.96C13.5 24.03 13.29 24 13.22 23.96C9.54 21.34 9.5 19.72 9.5 19.72V19.07H13.18ZM5.57 4.93C5.54 4.93 5.5 4.86 5.5 4.86C5.5 4.79 5.54 4.72 5.61 4.72L9.57 4H9.64L13.43 5.45C13.47 5.45 13.5 5.52 13.5 5.55V8H9.39V7.83C9.39 7.62 9.35 7.42 9.25 7.24C8.97 6.76 7.62 5.93 6.92 5.55C6.49 5.34 6.03 5.14 5.57 4.93Z" fill="#3390FF"/>
</g>
<defs>
<clipPath id="clip0">
<rect width="28" height="28" fill="white" transform="translate(0.5)"/>
</clipPath>
</defs>
</svg>
