<svg width="29" height="28" viewBox="0 0 29 28" fill="none" xmlns="http://www.w3.org/2000/svg">
<g clip-path="url(#clip0)">
<rect x="0.5" width="28" height="28" rx="1" fill="#111111"/>
<path d="M24.5 13.6922V5.91277C24.5 5.79318 24.348 5.73845 24.273 5.83372L15.776 16.455C15.7609 16.4737 15.7515 16.4962 15.7487 16.5201C15.746 16.5439 15.75 16.568 15.7604 16.5897C15.7708 16.6113 15.7871 16.6295 15.8075 16.6423C15.8278 16.655 15.8513 16.6618 15.8753 16.6617H22.0149C22.1812 16.6617 22.3372 16.5867 22.4406 16.457L24.3804 14.0328C24.4574 13.9355 24.5 13.8159 24.5 13.6922ZM4.61959 14.0328L11.0025 22.0109C11.1059 22.1406 11.2619 22.2156 11.4281 22.2156H17.5678C17.6752 22.2156 17.734 22.092 17.6671 22.0088L4.72702 5.83372C4.65202 5.74048 4.5 5.79318 4.5 5.91277V13.6922C4.5 13.8159 4.54257 13.9355 4.61959 14.0328Z" fill="white"/>
</g>
<defs>
<clipPath id="clip0">
<rect width="28" height="28" fill="white" transform="translate(0.5)"/>
</clipPath>
</defs>
</svg>
