<svg width="29" height="28" viewBox="0 0 29 28" fill="none" xmlns="http://www.w3.org/2000/svg">
<rect x="0.5" width="28" height="28" rx="1" fill="#000813"/>
<path d="M23.62 23.15H24.3V23.8H19.57V23.15H20.25V4.85H19.57V4.2H24.3V4.85H23.62V23.15ZM16.19 23.15H16.87V23.8H12.13V23.15H12.81V4.85H12.13V4.2H16.86V4.85H16.18V23.15H16.19ZM8.75995 23.15H9.43995V23.8H4.69995V23.15H5.37995V4.85H4.69995V4.2H9.42995V4.85H8.75995V23.15Z" fill="#D43801"/>
<path fill-rule="evenodd" clip-rule="evenodd" d="M12.3699 15.62L14.6399 7.95L16.9299 15.38C16.9399 15.35 16.9399 15.31 16.9499 15.28C17.1099 14.49 17.2799 13.69 17.4299 12.94C17.4499 12.85 17.4499 12.85 17.4699 12.76C17.8799 10.77 18.1299 9.43 18.1299 9.3C18.0899 9.03 17.9199 8.78 17.6699 8.62L16.9099 8.16H23.6299L23.0499 8.6C22.3999 9.1 21.9399 9.72 21.6799 10.42C21.2799 11.78 19.6999 19.21 19.6999 19.63C19.7399 20.06 19.9199 20.47 20.2199 20.84L20.5599 21.25H14.9399L15.0199 20.93C15.1099 20.59 15.1599 20.24 15.1599 19.9C15.1599 19.65 15.0499 18.99 14.8699 18.06C14.8399 17.9 14.8399 17.9 14.7999 17.74C14.7499 17.5 14.6999 17.26 14.6499 17.02C14.5799 17.28 14.5099 17.54 14.4399 17.8C14.3999 17.94 14.3999 17.94 14.3699 18.07C14.1199 19.03 13.9699 19.72 13.9699 19.93C13.9699 20.25 14.0599 20.58 14.2299 20.85L14.4599 21.23H8.32993L9.07993 20.77C9.17993 20.71 9.34993 20.59 9.50993 20.45C9.71993 20.26 9.84993 20.08 9.87993 19.94C9.87993 19.92 9.88993 19.9 9.88993 19.9C9.84993 19.3 9.39993 17.57 8.65993 15.08C8.59993 14.89 8.54993 14.7 8.48993 14.5C8.19993 13.54 7.88993 12.54 7.57993 11.55C7.37993 10.92 7.23993 10.46 7.07993 9.99C6.93993 9.44 6.53993 8.93 5.97993 8.6L5.17993 8.15H11.2199L11.1499 8.45C11.0599 8.88 11.0099 9.31 11.0099 9.75C11.0799 10.36 11.2999 11.42 11.6299 12.77C11.6799 12.98 11.7399 13.2 11.7899 13.42C11.9699 14.12 12.1599 14.84 12.3499 15.53C12.3499 15.57 12.3599 15.59 12.3699 15.62Z" fill="#F4BF2A" stroke="#000813" stroke-width="0.5"/>
</svg>
