<svg width="29" height="28" viewBox="0 0 29 28" fill="none" xmlns="http://www.w3.org/2000/svg">
<g clip-path="url(#clip0)">
<rect x="0.5" width="28" height="28" rx="1" fill="black"/>
<path d="M6.5 6C8.44 7.33 9.66 8 10.15 8C10.15 9.2 10.15 12.48 10.15 17.85C12.58 17.85 13.7 17.85 13.5 17.85C9.85 18.69 7.52 19.72 6.5 20.93V6ZM22.5 6V20.92C21.49 19.71 19.15 18.68 15.5 17.84C15.3 17.84 16.41 17.84 18.85 17.84C18.85 12.48 18.85 9.2 18.85 7.99C19.34 8 20.56 7.33 22.5 6ZM12.59 11.38C13.22 11.48 13.86 11.53 14.49 11.53C15.12 11.53 15.76 11.48 16.39 11.38C16.2 12.06 16.1 12.78 16.1 13.55C16.1 14.32 16.2 15.08 16.39 15.84C15.27 17.58 14.64 19.63 14.49 21.99C14.34 19.63 13.7 17.58 12.59 15.84C12.79 15.04 12.89 14.27 12.89 13.55C12.89 12.83 12.79 12.11 12.59 11.38Z" fill="white"/>
</g>
<defs>
<clipPath id="clip0">
<rect width="28" height="28" fill="white" transform="translate(0.5)"/>
</clipPath>
</defs>
</svg>
