<svg width="16" height="17" viewBox="0 0 16 17" xmlns="http://www.w3.org/2000/svg" id="comment">
<path fill-rule="evenodd" clip-rule="evenodd" d="M0.773804 7.32667C0.773804 3.51438 4.22401 0.5 8.35899 0.5C12.494 0.5 15.9442 3.51438 15.9442 7.32667C15.9442 7.57148 15.9281 7.81041 15.9012 8.0437C15.4777 11.9653 11.9265 14.6977 10.2864 15.7504L9.11751 16.5V14.0763C9.02841 14.0848 8.94079 14.0969 8.85325 14.1089C8.69123 14.1311 8.52945 14.1533 8.35899 14.1533C4.22401 14.1533 0.773804 11.139 0.773804 7.32667ZM14.4268 7.32682C14.4268 4.43684 11.7648 2.01719 8.35862 2.01719C4.9524 2.01719 2.29047 4.43684 2.29047 7.32682C2.29047 10.2168 4.9524 12.6364 8.35862 12.6364C8.82535 12.6364 9.2818 12.5854 9.72603 12.4957L10.6342 12.312V13.4587C12.1872 12.2154 14.1306 10.3086 14.3927 7.88089L14.3942 7.87793V7.87497C14.4155 7.69138 14.4268 7.50931 14.4268 7.32682Z" />
</svg>
