<svg width="17" height="16" viewBox="0 0 17 16" fill="none" xmlns="http://www.w3.org/2000/svg">
  <path fill-rule="evenodd" clip-rule="evenodd" d="M0.924316 6.82618C0.924316 3.01389 4.37452 -0.000488281 8.5095 -0.000488281C12.6445 -0.000488281 16.0947 3.01389 16.0947 6.82618C16.0947 7.07099 16.0786 7.30992 16.0517 7.54322C15.6282 11.4648 12.077 14.1972 10.4369 15.2499L9.26802 15.9995V13.5758C9.17892 13.5843 9.0913 13.5964 9.00376 13.6084C8.84174 13.6306 8.67997 13.6528 8.5095 13.6528C4.37452 13.6528 0.924316 10.6385 0.924316 6.82618ZM14.5773 6.82633C14.5773 3.93635 11.9153 1.5167 8.50913 1.5167C5.10292 1.5167 2.44098 3.93635 2.44098 6.82633C2.44098 9.71631 5.10292 12.136 8.50913 12.136C8.97587 12.136 9.43231 12.0849 9.87654 11.9952L10.7847 11.8115V12.9582C12.3378 11.7149 14.2811 9.80809 14.5432 7.3804L14.5447 7.37744V7.37448C14.566 7.19089 14.5773 7.00883 14.5773 6.82633Z" fill="currentColor"/>
</svg>
