<svg width="18" height="15" viewBox="0 0 18 15" fill="none" xmlns="http://www.w3.org/2000/svg">
  <path d="M10.4881 5.51452L10.5288 2.68685C10.5288 2.68685 10.6161 2.51928 10.8702 2.4326C11.124 2.42894 11.2078 2.51104 11.2919 2.51011C11.3753 2.5915 16.3155 5.93152 16.3155 5.93152C16.3155 5.93152 16.8196 6.17388 16.8126 6.67321C16.8056 7.17255 16.4641 7.34306 16.4641 7.34306L11.2576 10.8263C11.2576 10.8263 11.0028 10.9134 10.749 10.917C10.4121 10.8381 10.4146 10.6719 10.4146 10.6719L10.4528 8.01048L5.4639 8.08092C5.4639 8.08092 1.56807 8.63472 1.54732 10.0478C1.54732 10.0478 1.69594 5.55574 5.67037 5.49949" fill="currentColor" />
</svg>
