<svg width="17" height="18" viewBox="0 0 17 18" fill="none" xmlns="http://www.w3.org/2000/svg">
<path d="M12.1895 1.05943L14.4758 1.05943C14.8801 1.05943 15.2677 1.228 15.5536 1.52805C15.8394 1.82811 16 2.23507 16 2.65942L16 8.25938C16 8.68372 15.8394 9.09069 15.5536 9.39074C15.2677 9.6908 14.8801 9.85937 14.4758 9.85937L12.1895 9.85937M6.85489 11.4594L6.85489 14.6593C6.85489 15.2959 7.09576 15.9063 7.52452 16.3564C7.95328 16.8065 8.53481 17.0593 9.14117 17.0593L12.1895 9.85937L12.1895 1.05943L3.59313 1.05943C3.22555 1.05507 2.86886 1.1903 2.58877 1.44022C2.30868 1.69014 2.12406 2.0379 2.06895 2.41942L1.01726 9.61937C0.984104 9.84869 0.998837 10.0828 1.06044 10.3056C1.12204 10.5283 1.22904 10.7343 1.37403 10.9094C1.51901 11.0844 1.69851 11.2242 1.90009 11.3192C2.10167 11.4142 2.32051 11.462 2.54145 11.4594L6.85489 11.4594Z" stroke-width="1.61666" stroke-linecap="round" stroke-linejoin="round"/>
</svg>
