<svg width="17" height="17" viewBox="0 0 17 17" fill="none" xmlns="http://www.w3.org/2000/svg">
<path fill-rule="evenodd" clip-rule="evenodd" d="M8.30635 10.8601C9.58085 10.8601 10.614 9.82689 10.614 8.55238C10.614 7.27788 9.58085 6.24469 8.30635 6.24469C7.03185 6.24469 5.99866 7.27788 5.99866 8.55238C5.99866 9.82689 7.03185 10.8601 8.30635 10.8601Z" stroke-width="1.2" stroke-linecap="round" stroke-linejoin="round"/>
<path fill-rule="evenodd" clip-rule="evenodd" d="M13.4808 10.6499C13.2902 11.0816 13.3816 11.5857 13.7116 11.923L13.7539 11.9653C14.3004 12.5119 14.3004 13.398 13.7539 13.9445C13.2073 14.4911 12.3212 14.4911 11.7747 13.9445L11.7324 13.9022C11.3982 13.5785 10.9033 13.4851 10.4741 13.6647C10.0449 13.8443 9.76403 14.2624 9.76004 14.7276V14.8468C9.76004 15.6192 9.13393 16.2453 8.36158 16.2453C7.58923 16.2453 6.96312 15.6192 6.96312 14.8468V14.783C6.9521 14.3092 6.65253 13.8904 6.20774 13.7268C5.77611 13.5362 5.27192 13.6276 4.93466 13.9576L4.89235 13.9999C4.3458 14.5465 3.45967 14.5465 2.91312 13.9999C2.36657 13.4534 2.36657 12.5672 2.91312 12.0207L2.95543 11.9784C3.27915 11.6442 3.37259 11.1493 3.19299 10.7201C3.01338 10.2909 2.59528 10.0101 2.13005 10.0061H2.01235C1.24 10.0061 0.613892 9.37997 0.613892 8.60762C0.613892 7.83527 1.24 7.20916 2.01235 7.20916H2.07543C2.5492 7.19814 2.96806 6.89856 3.13158 6.45377C3.3222 6.02214 3.2308 5.51795 2.90081 5.18069L2.85851 5.13839C2.49407 4.78712 2.34775 4.26642 2.47588 3.77674C2.60401 3.28706 2.98661 2.90476 3.47639 2.77701C3.96617 2.64926 4.48676 2.79598 4.83774 3.16069L4.88004 3.203C5.2173 3.53299 5.7215 3.62438 6.15312 3.43377H6.20928C6.63202 3.25255 6.90677 2.83757 6.90851 2.37762V2.25839C6.90851 1.48604 7.53462 0.859924 8.30697 0.859924C9.07932 0.859924 9.70543 1.48604 9.70543 2.25839V2.32146C9.70942 2.7867 9.99028 3.20479 10.4195 3.3844C10.8486 3.56401 11.3436 3.47057 11.6777 3.14685L11.72 3.10454C12.2666 2.55799 13.1527 2.55799 13.6993 3.10454C14.2458 3.65109 14.2458 4.53722 13.6993 5.08377L13.657 5.12608C13.327 5.46334 13.2356 5.96753 13.4262 6.39916V6.45531C13.6074 6.87806 14.0224 7.1528 14.4824 7.15454H14.6016C15.3739 7.15454 16 7.78065 16 8.553C16 9.32535 15.3739 9.95146 14.6016 9.95146H14.537C14.0772 9.95307 13.6623 10.2275 13.4808 10.6499Z" stroke-width="1.2" stroke-linecap="round" stroke-linejoin="round"/>
</svg>
