<svg width="17" height="18" viewBox="0 0 17 18" fill="none" xmlns="http://www.w3.org/2000/svg">
<path d="M4.81046 17.0592H2.52419C2.11995 17.0592 1.73226 16.8907 1.44642 16.5906C1.16058 16.2905 1 15.8836 1 15.4592V9.85927C1 9.43493 1.16058 9.02796 1.44642 8.72791C1.73226 8.42785 2.11995 8.25928 2.52419 8.25928H4.81046M10.1451 6.65929V3.45931C10.1451 2.8228 9.90424 2.21235 9.47548 1.76227C9.04672 1.31218 8.46519 1.05933 7.85883 1.05933L4.81046 8.25928V17.0592H13.4069C13.7744 17.0636 14.1311 16.9283 14.4112 16.6784C14.6913 16.4285 14.8759 16.0808 14.9311 15.6992L15.9827 8.49928C16.0159 8.26997 16.0012 8.03583 15.9396 7.81308C15.878 7.59034 15.771 7.38432 15.626 7.2093C15.481 7.03428 15.3015 6.89443 15.0999 6.79946C14.8983 6.70449 14.6795 6.65666 14.4586 6.65929H10.1451Z" stroke-width="1.61666" stroke-linecap="round" stroke-linejoin="round"/>
</svg>
