<svg width="36" height="40" viewBox="0 0 36 40" fill="none" xmlns="http://www.w3.org/2000/svg">
  <path fill-rule="evenodd" clip-rule="evenodd" d="M23.2738 22.284C23.2435 22.3154 23.217 22.3506 23.1839 22.3811C21.7801 23.7468 19.5553 23.7468 18.1515 22.3811C16.795 21.0621 16.7581 18.8868 18.0673 17.5211C18.0947 17.4925 18.1231 17.464 18.1515 17.4364C19.5553 16.0716 21.7801 16.0716 23.1839 17.4364L24.5489 16.0954C22.4054 13.9897 18.93 13.9897 16.7874 16.0954C14.6959 18.1287 14.6373 21.4849 16.6569 23.5906C16.6995 23.6354 16.7439 23.6792 16.7874 23.7221C18.9309 25.8278 22.4063 25.8278 24.5499 23.7221C24.5811 23.6906 24.6085 23.6564 24.6388 23.6249L23.2738 22.284Z" fill="currentColor" />
  <path fill-rule="evenodd" clip-rule="evenodd" d="M28.41 27.3282C28.3788 27.3606 28.3494 27.393 28.3182 27.4235C24.0936 31.5749 17.244 31.5749 13.0204 27.4235C8.89794 23.4159 8.78348 16.8016 12.764 12.6501C12.8482 12.5635 12.9333 12.4778 13.0204 12.393C17.244 8.24157 24.0936 8.24157 28.3182 12.393L29.774 10.9616C24.7454 6.02062 16.5923 6.02062 11.5646 10.9616C6.65699 15.734 6.52078 23.6082 11.2609 28.5492C11.3602 28.653 11.4615 28.7549 11.5646 28.8549C16.5923 33.7959 24.7454 33.7959 29.774 28.8549C29.8062 28.8235 29.8346 28.7911 29.8658 28.7597L28.409 27.3282H28.41Z" fill="#FF6F11" />
  <path fill-rule="evenodd" clip-rule="evenodd" d="M33.6532 32.4829C33.622 32.5133 33.5936 32.5467 33.5614 32.5781C26.4403 39.5743 14.8951 39.5743 7.77493 32.5781C0.652905 25.581 0.652905 14.2362 7.77399 7.23905C14.8941 0.241905 26.4394 0.241905 33.5605 7.23905L34.9936 5.83143C27.0807 -1.94381 14.2528 -1.94381 6.34088 5.83143C-1.57196 13.6048 -1.57196 26.2105 6.34088 33.9838C14.2528 41.759 27.0807 41.759 34.9936 33.9838C35.0248 33.9533 35.0541 33.921 35.0853 33.8886L33.6522 32.4819L33.6532 32.4829Z" fill="#FF6F11" />
</svg>
