<svg width="140" height="43" viewBox="0 0 140 43" fill="none" xmlns="http://www.w3.org/2000/svg">
  <path d="M28.797 16.32L31.359 20.741L33.907 16.321H36.27L32.335 22.689V26.667H30.297V22.69L26.504 16.322L28.797 16.32ZM37.19 16.32H42.625C44.521 16.32 45.583 17.094 45.583 18.918C45.583 20.12 45.143 21.003 44.068 21.293V21.363C45.201 21.543 45.824 22.371 45.824 23.697C45.824 25.52 44.847 26.667 42.794 26.667H37.19V16.321V16.32ZM39.228 20.672H41.775C43.064 20.672 43.545 20.452 43.545 19.208C43.545 18.228 43.106 17.964 42.115 17.964H39.228V20.672V20.672ZM39.228 25.022H41.775C43.12 25.022 43.785 24.692 43.785 23.545C43.785 22.426 43.318 22.15 42.144 22.15H39.228V25.023V25.022ZM49.56 20.603H54.514V22.247H49.56V25.023H54.754V26.667H47.521V16.321H54.754V17.964H49.56V20.603ZM58.349 26.667H56.31V16.32H61.491C63.798 16.32 64.931 17.177 64.931 19.526C64.931 20.866 64.661 22.136 63.019 22.343V22.399C64.265 22.468 64.789 23.186 64.789 24.388V26.667H62.75V24.553C62.75 23.503 62.113 23.2 61.164 23.2H58.35V26.667H58.349ZM58.349 21.514H61.165C62.411 21.514 62.864 20.962 62.864 19.788C62.864 18.531 62.524 18.006 61.25 18.006H58.349V21.514V21.514ZM68.27 23.352C68.27 24.982 68.61 25.147 70.563 25.147C72.503 25.147 72.913 24.691 72.913 23.655C72.913 22.592 72.333 22.385 70.308 22.247C67.859 22.081 66.345 21.57 66.345 19.138C66.345 17.37 67.293 16.21 70.521 16.21C72.941 16.21 74.625 16.638 74.625 18.931V19.332H72.672C72.672 18.033 72.219 17.772 70.563 17.772C68.737 17.772 68.383 18.338 68.383 19.152C68.383 20.189 68.496 20.465 70.931 20.603C73.479 20.755 74.866 21.266 74.866 23.476C74.866 25.797 74.13 26.791 70.563 26.791C67.958 26.791 66.345 26.418 66.345 23.766V23.352H68.27ZM78.46 26.667H76.422V16.32H80.937C83.527 16.32 84.9 16.887 84.9 19.719C84.9 22.551 83.91 23.269 81.121 23.269H78.46V26.667ZM78.46 21.584H80.923C82.31 21.584 82.833 21.266 82.833 19.899C82.833 18.407 82.31 18.006 80.923 18.006H78.46V21.584ZM90.986 16.21C94.552 16.21 95.529 17.315 95.529 21.28C95.529 25.88 94.539 26.791 90.986 26.791C87.164 26.791 86.456 25.866 86.456 21.28C86.456 17.315 87.391 16.21 90.986 16.21ZM90.986 25.106C93.109 25.106 93.463 24.692 93.463 21.5C93.463 18.158 93.038 17.895 90.986 17.895C88.862 17.895 88.523 18.158 88.523 21.5C88.523 24.76 88.863 25.106 90.986 25.106ZM99.265 26.667H97.227V16.32H102.407C104.715 16.32 105.847 17.177 105.847 19.526C105.847 20.866 105.577 22.136 103.936 22.343V22.399C105.182 22.468 105.706 23.186 105.706 24.388V26.667H103.667V24.553C103.667 23.503 103.03 23.2 102.082 23.2H99.265V26.667V26.667ZM99.265 21.514H102.082C103.328 21.514 103.78 20.962 103.78 19.788C103.78 18.531 103.44 18.006 102.167 18.006H99.265V21.514V21.514ZM111.946 26.667H109.908V18.006H106.794V16.32H115.06V18.006H111.946V26.667ZM122.533 26.667H120.494V16.32H125.675C127.982 16.32 129.115 17.177 129.115 19.526C129.115 20.866 128.845 22.136 127.203 22.343V22.399C128.449 22.468 128.973 23.186 128.973 24.388V26.667H126.935V24.553C126.935 23.503 126.298 23.2 125.349 23.2H122.533V26.667V26.667ZM122.533 21.514H125.349C126.595 21.514 127.048 20.962 127.048 19.788C127.048 18.531 126.708 18.006 125.434 18.006H122.533V21.514Z" fill="currentColor"/>
  <path d="M132.851 16.32V23.324C132.851 24.732 133.12 25.105 135.242 25.105C137.394 25.105 137.606 24.732 137.606 23.324V16.32H139.645V23.227C139.645 25.837 138.993 26.791 135.186 26.791C131.35 26.791 130.812 25.838 130.812 23.213V16.32H132.851V16.32Z" fill="currentColor" />
  <path d="M24.173 23.957C24.141 23.99 24.113 24.027 24.078 24.059C23.3643 24.7487 22.4105 25.1342 21.418 25.1342C20.4255 25.1342 19.4718 24.7487 18.758 24.059C18.4095 23.7224 18.1323 23.3191 17.943 22.8731C17.7537 22.4271 17.6561 21.9475 17.6561 21.463C17.6561 20.9785 17.7537 20.4989 17.943 20.0529C18.1323 19.6069 18.4095 19.2036 18.758 18.867C19.4718 18.1773 20.4255 17.7918 21.418 17.7918C22.4105 17.7918 23.3643 18.1773 24.078 18.867L25.521 17.459C23.255 15.248 19.581 15.248 17.316 17.459C16.7784 17.9781 16.3508 18.6002 16.0588 19.2881C15.7668 19.976 15.6163 20.7157 15.6163 21.463C15.6163 22.2103 15.7668 22.95 16.0588 23.6379C16.3508 24.3258 16.7784 24.9479 17.316 25.467C19.582 27.678 23.256 27.678 25.522 25.467C25.555 25.434 25.584 25.398 25.616 25.365L24.173 23.957V23.957Z" fill="currentColor"/>
  <path d="M29.602 29.254C29.569 29.288 29.538 29.322 29.505 29.354C25.039 33.713 17.798 33.713 13.333 29.354C12.2736 28.3309 11.431 27.1049 10.8556 25.7492C10.2801 24.3935 9.98357 22.9358 9.98357 21.463C9.98357 19.9902 10.2801 18.5325 10.8556 17.1768C11.431 15.8211 12.2736 14.5951 13.333 13.572C17.798 9.213 25.039 9.213 29.505 13.572L31.044 12.069C25.728 6.881 17.109 6.881 11.794 12.069C10.5329 13.287 9.5299 14.7465 8.84488 16.3604C8.15987 17.9744 7.80684 19.7097 7.80684 21.463C7.80684 23.2163 8.15987 24.9516 8.84488 26.5656C9.5299 28.1795 10.5329 29.639 11.794 30.857C17.109 36.045 25.728 36.045 31.044 30.857C31.078 30.824 31.108 30.79 31.141 30.757L29.601 29.254H29.602Z" fill="#FF6F22"/>
  <path d="M35.146 34.666C35.113 34.698 35.083 34.733 35.049 34.766C27.521 42.112 15.316 42.112 7.789 34.766C0.260003 27.419 0.260003 15.507 7.788 8.16C15.315 0.812997 27.52 0.812997 35.048 8.16L36.563 6.682C28.198 -1.482 14.637 -1.482 6.273 6.682C-2.092 14.844 -2.092 28.08 6.273 36.242C14.637 44.406 28.198 44.406 36.563 36.242C36.596 36.21 36.627 36.176 36.66 36.142L35.145 34.665L35.146 34.666ZM118.213 25.03C118.213 25.989 117.418 26.766 116.436 26.766C115.454 26.766 114.658 25.989 114.658 25.03C114.658 24.072 115.454 23.295 116.436 23.295C117.418 23.295 118.213 24.072 118.213 25.03Z" fill="#FF6F22"/>
</svg>
