<svg width="18" height="19" viewBox="0 0 18 19" fill="none" xmlns="http://www.w3.org/2000/svg">
<mask id="path-1-outside-1" maskUnits="userSpaceOnUse" x="-1" y="0" width="19" height="19" fill="black">
<rect fill="currentColor" x="-1" width="19" height="19"/>
<path fill-rule="evenodd" clip-rule="evenodd" d="M15.8142 11.6083C14.0572 12.6277 11.8286 12.7407 9.90611 11.7118C6.95422 10.132 5.84192 6.45836 7.42172 3.50647C7.72877 2.93273 8.11492 2.42849 8.5595 2C6.22519 2.19063 4.0326 3.52593 2.84529 5.74444C0.9867 9.21726 2.29529 13.5392 5.76811 15.3978C9.24092 17.2564 13.5629 15.9478 15.4215 12.475C15.5734 12.1912 15.7041 11.9017 15.8142 11.6083Z"/>
</mask>
<path d="M15.8142 11.6083L17.6866 12.3113C17.9837 11.52 17.7512 10.6273 17.1059 10.0814C16.4605 9.53548 15.5417 9.45423 14.8106 9.87842L15.8142 11.6083ZM9.90611 11.7118L8.9624 13.4752L9.90611 11.7118ZM7.42172 3.50647L9.18507 4.45018V4.45018L7.42172 3.50647ZM8.5595 2L9.94742 3.44003C10.5561 2.85334 10.7302 1.94726 10.3822 1.17677C10.0342 0.406276 9.23935 -0.062176 8.39672 0.00663567L8.5595 2ZM2.84529 5.74444L1.08194 4.80073L2.84529 5.74444ZM5.76811 15.3978L6.71182 13.6345H6.71182L5.76811 15.3978ZM15.4215 12.475L13.6581 11.5313L13.6581 11.5313L15.4215 12.475ZM14.8106 9.87842C13.6279 10.5646 12.1361 10.6369 10.8498 9.94848L8.9624 13.4752C11.5211 14.8446 14.4866 14.6909 16.8179 13.3383L14.8106 9.87842ZM10.8498 9.94848C8.8718 8.88988 8.12647 6.42821 9.18507 4.45018L5.65837 2.56276C3.55737 6.48852 5.03663 11.3742 8.9624 13.4752L10.8498 9.94848ZM9.18507 4.45018C9.39245 4.06268 9.65129 3.72544 9.94742 3.44003L7.17159 0.55997C6.57855 1.13154 6.06509 1.80279 5.65837 2.56276L9.18507 4.45018ZM4.60864 6.68816C5.46201 5.09361 7.03649 4.13103 8.72229 3.99336L8.39672 0.00663567C5.4139 0.250223 2.60318 1.95825 1.08194 4.80073L4.60864 6.68816ZM6.71182 13.6345C4.21287 12.2971 3.27125 9.1871 4.60864 6.68816L1.08194 4.80073C-1.29785 9.24742 0.377705 14.7814 4.82439 17.1612L6.71182 13.6345ZM13.6581 11.5313C12.3207 14.0302 9.21076 14.9718 6.71182 13.6345L4.82439 17.1612C9.27108 19.5409 14.805 17.8654 17.1848 13.4187L13.6581 11.5313ZM13.9418 10.9054C13.8626 11.1164 13.7683 11.3254 13.6581 11.5313L17.1848 13.4187C17.3784 13.0569 17.5456 12.687 17.6866 12.3113L13.9418 10.9054Z" fill="currentColor" mask="url(#path-1-outside-1)"/>
</svg>
