<svg width="24" height="25" viewBox="0 0 24 25" fill="none" xmlns="http://www.w3.org/2000/svg">
<circle cx="11.7391" cy="12.3465" r="11.2391"/>
<path d="M10.4727 14.6562C10.4727 13.9635 10.5586 13.4115 10.7305 13C10.9023 12.5885 11.2409 12.138 11.7461 11.6484C12.2565 11.1536 12.5794 10.8021 12.7148 10.5938C12.9232 10.276 13.0273 9.93229 13.0273 9.5625C13.0273 9.07292 12.9049 8.70052 12.6602 8.44531C12.4206 8.1849 12.0664 8.05469 11.5977 8.05469C11.1497 8.05469 10.7878 8.18229 10.5117 8.4375C10.2409 8.6875 10.1055 9.02865 10.1055 9.46094H8.20703C8.21745 8.53906 8.52995 7.8099 9.14453 7.27344C9.76432 6.73698 10.582 6.46875 11.5977 6.46875C12.6445 6.46875 13.4596 6.73438 14.043 7.26562C14.6315 7.79688 14.9258 8.53906 14.9258 9.49219C14.9258 10.3411 14.5299 11.1771 13.7383 12L12.7773 12.9453C12.4336 13.3359 12.2565 13.9062 12.2461 14.6562H10.4727ZM10.3398 17.0859C10.3398 16.7786 10.4362 16.5312 10.6289 16.3438C10.8216 16.151 11.082 16.0547 11.4102 16.0547C11.7435 16.0547 12.0065 16.1536 12.1992 16.3516C12.3919 16.5443 12.4883 16.7891 12.4883 17.0859C12.4883 17.3724 12.3945 17.612 12.207 17.8047C12.0195 17.9974 11.7539 18.0938 11.4102 18.0938C11.0664 18.0938 10.8008 17.9974 10.6133 17.8047C10.431 17.612 10.3398 17.3724 10.3398 17.0859Z"/>
</svg>
