<svg width="136" height="136" viewBox="0 0 136 136" fill="none" xmlns="http://www.w3.org/2000/svg">
<circle cx="67.965" cy="67.9379" r="67.5257" fill="#FF6F23"/>
<path d="M110.593 107.753C103.172 115.501 96.1713 120.695 82.9849 124.996C71.457 128.007 59.2903 127.483 48.0635 123.494C36.8368 119.504 27.0686 112.231 20.0265 102.621C12.9844 93.0098 8.99362 81.5042 8.57212 69.5971C8.15063 57.6899 11.3179 45.9309 17.6628 35.8463C24.0077 25.7616 33.2373 17.8169 44.1538 13.0432C55.0703 8.26943 67.1696 6.88715 78.8815 9.07568C90.5934 11.2642 101.904 17.0485 110.36 25.4422" class="white-stroke" stroke-width="5" stroke="#fff"/>
<circle cx="67.9644" cy="67.492" r="42.6698" class="white-fill" />
<path fill-rule="evenodd" clip-rule="evenodd" d="M102.349 99.7571C102.266 99.8378 102.191 99.9242 102.108 100.005C83.3953 118.267 53.055 118.267 34.3436 100.005C15.6307 81.7425 15.6307 52.134 34.3436 33.8716C53.055 15.6092 83.3953 15.6092 102.108 33.8716L105.873 30.1976C85.08 9.90547 51.3703 9.90547 30.5776 30.1976C9.78631 50.4884 9.78631 83.388 30.5776 103.679C51.3703 123.971 85.08 123.971 105.873 103.679C105.955 103.598 106.031 103.513 106.114 103.431L102.349 99.7571Z" class="white-fill"/>
</svg>
