<svg width="22" height="22" viewBox="0 0 22 22" fill="none" xmlns="http://www.w3.org/2000/svg">
<path fill-rule="evenodd" clip-rule="evenodd" d="M17.6 8.8C17.6 11.0321 16.7689 13.0702 15.3993 14.6215L21.8374 21.0596C21.9378 21.1593 22 21.2973 22 21.45C22 21.7537 21.7537 22 21.45 22C21.2973 22 21.1593 21.9378 21.0596 21.8374L14.6215 15.3993C13.0702 16.7689 11.0321 17.6 8.8 17.6C3.93989 17.6 0 13.6601 0 8.8C0 3.9399 3.93989 0 8.8 0C13.6601 0 17.6 3.9399 17.6 8.8ZM16.5 8.8C16.5 13.0526 13.0526 16.5 8.8 16.5C4.54741 16.5 1.1 13.0526 1.1 8.8C1.1 4.5474 4.54741 1.1 8.8 1.1C13.0526 1.1 16.5 4.5474 16.5 8.8Z" fill="currentColor"/>
</svg>
