<svg width="32" height="25" viewBox="0 0 32 25" xmlns="http://www.w3.org/2000/svg">
<rect x="0.0488281" y="0.379883" width="31.7425" height="24.5593" rx="4"/>
<path d="M22.4234 10.6588C21.2986 10.6588 20.3068 10.1162 19.6656 9.28925L12.8912 11.8948C12.898 11.9837 12.918 12.069 12.918 12.1596C12.918 12.328 12.8914 12.4891 12.8683 12.6511L19.8102 15.8554C20.4524 15.1291 21.3801 14.661 22.4234 14.661C24.3542 14.661 25.9254 16.2322 25.9254 18.163C25.9254 20.0938 24.3542 21.665 22.4234 21.665C20.4926 21.665 18.9214 20.0939 18.9214 18.1631C18.9214 17.9948 18.9481 17.8336 18.9711 17.6716L12.0293 14.4673C11.3871 15.1936 10.4593 15.6617 9.41607 15.6617C7.48527 15.6617 5.91406 14.0905 5.91406 12.1597C5.91406 10.2289 7.48527 8.65767 9.41607 8.65767C10.5409 8.65767 11.5327 9.20028 12.1739 10.0272L18.9483 7.42172C18.9415 7.33275 18.9215 7.24753 18.9215 7.15687C18.9215 5.22607 20.4927 3.65487 22.4235 3.65487C24.3543 3.65487 25.9255 5.22607 25.9255 7.15687C25.9254 9.08762 24.3542 10.6588 22.4234 10.6588Z" />
</svg>
