<svg width="17" height="19" viewBox="0 0 17 19" fill="none" xmlns="http://www.w3.org/2000/svg">
  <path d="M12.2474 1.46934L14.5337 1.46934C14.9379 1.46934 15.3256 1.63791 15.6114 1.93796C15.8973 2.23802 16.0579 2.64498 16.0579 3.06933L16.0579 8.66929C16.0579 9.09364 15.8973 9.5006 15.6114 9.80066C15.3256 10.1007 14.9379 10.2693 14.5337 10.2693L12.2474 10.2693M6.91275 11.8693L6.91275 15.0693C6.91275 15.7058 7.15363 16.3162 7.58239 16.7663C8.01115 17.2164 8.59267 17.4692 9.19903 17.4692L12.2474 10.2693L12.2474 1.46934L3.65099 1.46934C3.28341 1.46498 2.92672 1.60021 2.64663 1.85013C2.36654 2.10005 2.18192 2.44781 2.12681 2.82933L1.07512 10.0293C1.04196 10.2586 1.0567 10.4927 1.1183 10.7155C1.17991 10.9382 1.28691 11.1442 1.43189 11.3193C1.57687 11.4943 1.75637 11.6341 1.95795 11.7291C2.15953 11.8241 2.37837 11.8719 2.59931 11.8693L6.91275 11.8693Z" stroke="currentColor" stroke-width="1.61666" stroke-linecap="round" stroke-linejoin="round"/>
</svg>
