<svg width="17" height="18" viewBox="0 0 17 18" fill="none" xmlns="http://www.w3.org/2000/svg">
  <path d="M4.86832 16.9691H2.58205C2.17781 16.9691 1.79012 16.8006 1.50428 16.5005C1.21844 16.2005 1.05786 15.7935 1.05786 15.3691V9.76918C1.05786 9.34484 1.21844 8.93787 1.50428 8.63782C1.79012 8.33776 2.17781 8.16919 2.58205 8.16919H4.86832M10.203 6.5692V3.36922C10.203 2.73271 9.9621 2.12226 9.53334 1.67218C9.10458 1.22209 8.52305 0.969238 7.91669 0.969238L4.86832 8.16919V16.9691H13.4647C13.8323 16.9735 14.189 16.8383 14.4691 16.5883C14.7492 16.3384 14.9338 15.9907 14.9889 15.6091L16.0406 8.40919C16.0738 8.17988 16.059 7.94574 15.9974 7.723C15.9358 7.50025 15.8288 7.29423 15.6838 7.11921C15.5389 6.94419 15.3594 6.80435 15.1578 6.70938C14.9562 6.61441 14.7374 6.56658 14.5164 6.5692H10.203Z" stroke="currentColor" stroke-width="1.61666" stroke-linecap="round" stroke-linejoin="round"/>
</svg>
