<svg width="39" height="48" viewBox="0 0 39 48" fill="none" xmlns="http://www.w3.org/2000/svg">
<path d="M30 24C30 29.799 25.299 34.5 19.5 34.5C13.701 34.5 9 29.799 9 24C9 18.201 13.701 13.5 19.5 13.5C25.299 13.5 30 18.201 30 24Z" stroke="currentColor"/>
<path d="M23.4001 21.8C23.4001 23.9539 21.654 25.7 19.5001 25.7C17.3462 25.7 15.6001 23.9539 15.6001 21.8C15.6001 19.6461 17.3462 17.9 19.5001 17.9C21.654 17.9 23.4001 19.6461 23.4001 21.8Z" stroke="currentColor"/>
<path d="M19.4999 25.6C20.8207 25.6 22.3319 25.8661 23.5091 26.8574C24.6392 27.8091 25.5505 29.506 25.598 32.5489C25.529 32.5974 25.442 32.6568 25.338 32.7242C25.0358 32.9202 24.5915 33.1837 24.0308 33.4476C22.907 33.9764 21.3306 34.5 19.4999 34.5C17.6692 34.5 16.0928 33.9764 14.9691 33.4476C14.4083 33.1837 13.964 32.9202 13.6618 32.7242C13.5578 32.6568 13.4708 32.5974 13.4018 32.5489C13.4493 29.506 14.3606 27.8091 15.4907 26.8574C16.6679 25.8661 18.1792 25.6 19.4999 25.6Z" stroke="currentColor"/>
</svg>
