<svg width="40" height="40" viewBox="0 0 40 40" fill="none" xmlns="http://www.w3.org/2000/svg">
<path d="M17.9141 2.01789C19.0771 0.892787 20.9229 0.892786 22.0859 2.01789L23.8903 3.76345C24.5553 4.40684 25.4801 4.70731 26.3963 4.57771L28.8821 4.22611C30.4843 3.99949 31.9776 5.08439 32.2571 6.67822L32.6909 9.151C32.8508 10.0624 33.4223 10.8491 34.2397 11.2828L36.4574 12.4594C37.8869 13.2178 38.4572 14.9732 37.7466 16.427L36.644 18.6825C36.2377 19.5138 36.2377 20.4862 36.644 21.3175L37.7466 23.573C38.4572 25.0268 37.8869 26.7822 36.4574 27.5406L34.2397 28.7172C33.4223 29.1509 32.8508 29.9376 32.6909 30.849L32.2571 33.3218C31.9776 34.9156 30.4843 36.0005 28.8821 35.7739L26.3963 35.4223C25.4801 35.2927 24.5553 35.5932 23.8903 36.2365L22.0859 37.9821C20.9229 39.1072 19.0771 39.1072 17.9141 37.9821L16.1097 36.2365C15.4447 35.5932 14.5199 35.2927 13.6037 35.4223L11.1179 35.7739C9.51568 36.0005 8.02244 34.9156 7.74286 33.3218L7.3091 30.849C7.14923 29.9376 6.5777 29.1509 5.76029 28.7172L3.54257 27.5406C2.11314 26.7822 1.54278 25.0268 2.25342 23.573L3.35597 21.3175C3.76234 20.4862 3.76235 19.5138 3.35597 18.6825L2.25342 16.427C1.54278 14.9732 2.11314 13.2178 3.54257 12.4594L5.76029 11.2828C6.5777 10.8491 7.14923 10.0624 7.3091 9.151L7.74286 6.67822C8.02244 5.08439 9.51568 3.99949 11.1179 4.22611L13.6037 4.57771C14.5199 4.70731 15.4447 4.40684 16.1097 3.76345L17.9141 2.01789Z" fill="#FF6F22"/>
<path d="M28.2758 11.0342L15.4483 25.1407L11.7241 22.32H9.65515L15.4483 31.7238L30.3448 11.0342H28.2758Z" fill="white"/>
</svg>
